<svg id="Layer_1" data-name="Layer 1" xmlns="http://www.w3.org/2000/svg" viewBox="0 0 24 24"><defs><style>.cls-1{fill:#bc1664;}.cls-2{fill:#fff;}.cls-3,.cls-4{fill:none;stroke-miterlimit:10;stroke-width:2px;}.cls-3{stroke:#000;}.cls-4{stroke:#bc1664;}</style></defs><title>email</title><path class="cls-1" d="M12,2.16c3.2,0,3.58,0,4.85.07,3.25.15,4.77,1.69,4.92,4.92.06,1.27.07,1.65.07,4.85s0,3.59-.07,4.85c-.15,3.23-1.66,4.77-4.92,4.92-1.27.06-1.64.07-4.85.07s-3.58,0-4.85-.07c-3.26-.15-4.77-1.7-4.92-4.92-.06-1.27-.07-1.64-.07-4.85s0-3.58.07-4.85C2.38,3.92,3.9,2.38,7.15,2.23,8.42,2.18,8.8,2.16,12,2.16ZM12,0C8.74,0,8.33,0,7.05.07c-4.35.2-6.78,2.62-7,7C0,8.33,0,8.74,0,12S0,15.67.07,17c.2,4.36,2.62,6.78,7,7C8.33,24,8.74,24,12,24s3.67,0,4.95-.07c4.35-.2,6.78-2.62,7-7C24,15.67,24,15.26,24,12s0-3.67-.07-4.95c-.2-4.35-2.62-6.78-7-7C15.67,0,15.26,0,12,0Zm0,5.84A6.16,6.16,0,1,0,18.16,12,6.16,6.16,0,0,0,12,5.84ZM12,16a4,4,0,1,1,4-4A4,4,0,0,1,12,16ZM18.41,4.15a1.44,1.44,0,1,0,1.43,1.44A1.44,1.44,0,0,0,18.41,4.15Z" transform="translate(0)"/><path class="cls-2" d="M13.34,21.64l-1.9.05a8.93,8.93,0,0,1-9.2-8.81V11.29a8.38,8.38,0,0,1,8.68-8.67l2.53,0c6.33-.79,8.79,3.23,7.92,8.8v1.37C21.37,17.86,18.38,21.64,13.34,21.64Z" transform="translate(0)"/><path class="cls-3" d="M13.05,15.55" transform="translate(0)"/><path class="cls-3" d="M2,5.3" transform="translate(0)"/><path class="cls-3" d="M12.81,14.39" transform="translate(0)"/><path class="cls-3" d="M22.2,5.7" transform="translate(0)"/><line class="cls-4" x1="2.91" y1="20.38" x2="10.98" y2="12.92"/><line class="cls-4" x1="21.01" y1="20.41" x2="13.17" y2="13.17"/><polyline class="cls-4" points="21.83 5.23 11.99 14.7 1.95 5.08"/></svg>