<svg id="Layer_1" data-name="Layer 1" xmlns="http://www.w3.org/2000/svg" viewBox="0 0 768 571"><defs><style>.cls-1{fill:#fff;}.cls-2{fill:#db4f9b;}.cls-3{fill:#bc1664;}.cls-4{font-size:93px;fill:#686868;font-family:DancingScript-Regular, Dancing Script;}.cls-5{letter-spacing:-0.02em;}.cls-6{letter-spacing:0em;}.cls-7{letter-spacing:-0.02em;}.cls-8{letter-spacing:-0.02em;}.cls-9{fill:none;stroke:#bc1664;stroke-miterlimit:10;}</style></defs><title>howdy</title><path class="cls-1" d="M754.24,615c-27.87,0-51.45-6.64-74.2-20.88l-4.57-2.86-4.67,2.67c-14.79,8.45-28.47,12.74-40.68,12.74a44.38,44.38,0,0,1-17.88-3.6c-21.63-9.43-31.18-35.39-35.39-55.51l-1.54-7.37-7.52.21c-3.22.09-6.44.14-9.57.14-51.59,0-89.88-12-110.72-34.67-27.06-29.44-16.91-69-3.64-97l3.36-7.08-6.56-4.3C418,382.66,391,358.68,391,328.71c0-27.09,22.35-49.14,41.1-62.87l5.7-4.17-2.69-6.52c-9.74-23.6-16.56-57.27,6.26-83.67,21-24.32,61.46-37.18,116.93-37.18l8.72,0,1.69-6.88c4.45-18,14-41.4,34.17-50.19a44.48,44.48,0,0,1,17.9-3.6c12.8,0,27.19,4.69,42.77,14l5,3,4.76-3.35C698.82,69.31,722.26,62,754.24,62c33.39,0,55.27,7.14,80.73,26.33L839.88,92l5.22-3.21c16.33-10,31.38-15.14,44.72-15.14a44.4,44.4,0,0,1,17.89,3.6c19.06,8.3,28.52,29.65,33.09,46.09l1.82,6.52,6.76.07c49.93.51,87.08,12.49,107.45,34.66,17.3,18.82,21.48,43.82,12.44,74.3l-2.08,7,6.42,3.47C1104.35,266,1141,293.29,1141,328.71c0,35.14-36.1,62.24-66.39,78.79l-6.91,3.79,2.83,7.35c12.67,32.85,10.12,59.89-7.57,80.35-21,24.33-61.46,37.18-116.92,37.18h-2.61l-7.55,0-1.37,7.43c-4,21.7-13.49,49.65-36.17,59.53a44.38,44.38,0,0,1-17.88,3.6c-12.23,0-25.94-4.3-40.75-12.78L835,591.2l-4.58,2.9C808.54,608,782.91,615,754.24,615Z" transform="translate(-382 -53)"/><path class="cls-2" d="M754.24,71c31.59,0,51.3,6.42,75.31,24.52l9.81,7.39,10.46-6.44c14.68-9,28.51-13.8,40-13.8a35,35,0,0,1,14.3,2.85c15.81,6.89,24,25.69,28,40.26l3.63,13,13.53.14c23.85.24,44.73,3.2,62.08,8.79,16.71,5.38,29.78,13.1,38.83,23,15,16.33,18.52,38.42,10.44,65.65l-4.16,14,12.85,7c21,11.37,37.1,23.61,47.86,36.38,9.83,11.67,14.81,23.46,14.81,35s-4.9,23.18-14.57,34.76c-10.59,12.67-26.44,24.83-47.13,36.14l-13.84,7.56,5.68,14.71c11.37,29.51,9.36,53.47-6,71.22-19,22-58.1,34.07-110.12,34.07H943.5l-15.11-.11-2.73,14.87c-3.59,19.55-11.87,44.6-30.91,52.9a35,35,0,0,1-14.29,2.85c-10.64,0-22.85-3.9-36.28-11.59l-9.41-5.39-9.16,5.81c-20.43,12.94-44.44,19.5-71.37,19.5-26.11,0-48.17-6.2-69.42-19.51l-9.14-5.72-9.35,5.35c-13.41,7.66-25.59,11.55-36.21,11.55a35.54,35.54,0,0,1-14.29-2.85c-18.1-7.89-26.4-31.06-30.17-49.1L582.59,531l-15.05.43c-3.14.08-6.27.13-9.32.13-24.64,0-46.22-2.84-64.13-8.44-17.26-5.4-30.7-13.24-40-23.32s-14.1-22-14.63-36.35c-.55-15,3.65-32,12.49-50.69l6.72-14.17L445.59,390C424.79,376.35,400,354.66,400,328.71c0-23.32,20.35-43.11,37.42-55.61l11.39-8.34-5.38-13c-12.77-30.92-11.17-55.93,4.74-74.34,19-22,58.11-34.07,110.13-34.07h1.59l14.18.06,3.38-13.76c4-16.07,12.21-36.76,29-44.09a35.13,35.13,0,0,1,14.31-2.85c11.16,0,24,4.27,38.17,12.69l10,6,9.53-6.7C702.34,77.84,724.28,71,754.24,71m0-18c-33.8,0-59.07,7.88-86.1,26.88C651.5,70,635.45,64.67,620.78,64.67A53.25,53.25,0,0,0,599.28,69c-19.34,8.42-32.43,28.36-39.3,56.29H558.3c-55.89,0-100.22,13.09-123.74,40.3-21.15,24.45-22.63,57-7.77,93C398.21,279.5,382,303.36,382,328.71c0,27.88,19.61,54,53.73,76.32C415.82,447,416,484.91,440.87,512c23.35,25.41,65.13,37.58,117.35,37.58q4.86,0,9.82-.14c6.46,30.88,20,52.94,40.6,61.92a53.29,53.29,0,0,0,21.48,4.35c14,0,29.29-4.86,45.14-13.93,24.27,15.2,49.89,22.26,79,22.26,29.38,0,56.68-6.89,81-22.3,15.88,9.09,31.18,14,45.22,14a53.29,53.29,0,0,0,21.48-4.35c21.54-9.39,35.35-33.06,41.42-66.16H946c55.9,0,100.21-13.08,123.74-40.29,20.45-23.66,22.5-54.88,9.16-89.48C1123.68,391,1150,361,1150,328.71c0-32.56-26.74-62.69-72.11-87.24,9.6-32.34,5.58-61.17-14.44-82.95-22.85-24.87-63.33-37.05-114-37.57C942.34,95.31,929.63,77,911.31,69a53.33,53.33,0,0,0-21.49-4.34c-15.27,0-32,5.77-49.43,16.47C813,60.5,789.42,53,754.24,53Z" transform="translate(-382 -53)"/><path class="cls-1" d="M753.18,600.5c-27.08,0-51-6.62-73.11-20.23l-2.75-1.7-2.83,1.59c-14.71,8.27-28.42,12.46-40.74,12.46a46.74,46.74,0,0,1-18.5-3.67c-17.44-7.47-29.84-26.36-35.85-54.64l-.95-4.49-4.58.13c-3.13.09-6.26.13-9.31.13-50.57,0-88.22-11.69-108.89-33.8-27.17-29-17.18-67.68-4-95l2.12-4.39-4.09-2.63c-32.18-20.71-49.18-44.06-49.18-67.55,0-21.26,14.11-42.65,40.81-61.86l3.55-2.56-1.69-4c-9.69-23.08-16.43-56.07,6.53-82.17,20.86-23.71,60.6-36.24,114.94-36.24l5.9,0,1.05-4.18c6.37-25.41,18.35-42.53,34.65-49.52a46.89,46.89,0,0,1,18.53-3.67c12.9,0,27.3,4.59,42.79,13.64l3,1.77,2.88-2c25.12-17.37,48.21-24.45,79.71-24.45,32.92,0,54.5,6.92,79.63,25.53l3,2.2,3.16-1.91c16.22-9.81,31.27-14.78,44.72-14.78a46.78,46.78,0,0,1,18.51,3.66c15.63,6.7,26.93,22,33.59,45.56l1.13,4,4.11,0c49,.49,85.51,12.17,105.71,33.78,17.42,18.63,21.68,43.23,12.65,73.11L1058,247l4,2.12c43.49,23.13,66.47,50,66.47,77.65,0,27.46-22.65,54.13-65.49,77.14l-4.3,2.31,1.78,4.55c12.44,31.7,9.73,59-7.82,79C1031.81,513.42,992.06,526,937.74,526h-2.53l-4.61,0-.84,4.52c-5.69,30.46-18.35,50.7-36.62,58.52a46.61,46.61,0,0,1-18.51,3.67c-12.33,0-26.06-4.21-40.81-12.5l-2.84-1.6-2.76,1.72C806.64,593.69,781.39,600.5,753.18,600.5Z" transform="translate(-382 -53)"/><path class="cls-3" d="M753.18,77c32,0,52,6.4,76.35,24.45l5.93,4.39,6.31-3.81c15.36-9.29,29.45-14,41.88-14A41.22,41.22,0,0,1,900,91.26c14,6,24.28,20.14,30.47,42l2.24,7.92,8.24.08c47.41.48,82.59,11.56,101.75,32,16,17.09,19.81,39.89,11.4,67.75l-2.62,8.65,8,4.25c20.91,11.12,37,23.18,47.88,35.86,10.4,12.13,15.67,24.56,15.67,36.93s-5.19,24.61-15.43,36.66C1096.88,376,1081,388,1060.41,399l-8.6,4.62,3.56,9.08c11.81,30.09,9.51,54.77-6.83,73.34-9.73,11.05-24.15,19.62-42.87,25.47-18.93,5.91-41.79,8.9-67.94,8.9h-2.48l-9.21-.06-1.69,9C920.63,549.35,911.82,575,891,583.9a41.18,41.18,0,0,1-16.34,3.22c-11.38,0-24.2-4-38.11-11.79l-5.68-3.2-5.53,3.45c-20.69,12.88-45,19.42-72.13,19.42-26.39,0-48.7-6.17-70.23-19.42l-5.51-3.39-5.64,3.17c-13.89,7.8-26.69,11.76-38,11.76a41.39,41.39,0,0,1-16.34-3.22c-19.86-8.51-28.71-32.29-32.63-50.74l-1.91-9-9.15.25c-3.08.09-6.16.13-9.16.13-24.36,0-45.78-2.78-63.64-8.27-17.69-5.44-31.57-13.44-41.24-23.78-25-26.79-15.49-63.09-3.07-88.83l4.22-8.77-8.18-5.26C431.37,376,406,353.93,406,326.74c0-24.53,20.95-44.75,38.52-57.39l7.11-5.12-3.39-8.07c-6.56-15.62-9.39-30.08-8.43-43a55.91,55.91,0,0,1,14-33.43c9.73-11.05,24.15-19.62,42.88-25.47,18.92-5.91,41.78-8.9,67.93-8.9h1.57l8.62,0,2.1-8.36c4.13-16.52,13-37.87,31.48-45.8A41.32,41.32,0,0,1,624.77,88c11.92,0,25.38,4.34,40,12.89l6.05,3.53,5.75-4C700.71,83.8,722.9,77,753.18,77m0-11c-32.52,0-56.84,7.45-82.84,25.42C654.32,82.07,638.88,77,624.77,77a52,52,0,0,0-20.69,4.12c-18.61,8-31.21,26.82-37.82,53.23h-1.62c-53.78,0-96.43,12.37-119.07,38.1-20.34,23.13-21.77,53.9-7.47,87.94C410.6,280.2,395,302.77,395,326.74c0,26.37,18.87,51.05,51.7,72.18-19.16,39.71-19,75.54,4.95,101.12,22.47,24,62.66,35.54,112.91,35.54q4.68,0,9.46-.13c6.21,29.2,19.22,50.06,39.06,58.56a52.07,52.07,0,0,0,20.67,4.11c13.49,0,28.18-4.6,43.44-13.17,23.35,14.37,48,21,76,21,28.27,0,54.55-6.51,78-21.09,15.28,8.6,30,13.21,43.5,13.21A52,52,0,0,0,895.3,594c20.74-8.88,34-31.26,39.87-62.57h2.56c53.79,0,96.43-12.37,119.07-38.11,19.68-22.37,21.65-51.9,8.81-84.61,43.06-23.13,68.39-51.43,68.39-82,0-30.79-25.73-59.28-69.38-82.5,9.23-30.59,5.37-57.85-13.9-78.45-22-23.52-60.94-35-109.67-35.53C934.18,106,922,88.69,904.32,81.15A51.9,51.9,0,0,0,883.65,77c-14.7,0-30.84,5.47-47.57,15.58C809.72,73.09,787,66,753.18,66Z" transform="translate(-382 -53)"/><text class="cls-4" transform="translate(108.35 259.1)"><tspan class="cls-5">N<tspan class="cls-6" x="57.29" y="0">ice to meet ya! </tspan></tspan><tspan class="cls-7" x="23.2" y="111.6">L</tspan><tspan x="74.82" y="111.6">et</tspan><tspan class="cls-8" x="132.29" y="111.6">’</tspan><tspan x="142.06" y="111.6">s be friends</tspan></text><line class="cls-9" x1="177.5" y1="72.5" x2="185.5" y2="83.5"/><line class="cls-9" x1="44.5" y1="205.5" x2="57.5" y2="207.5"/><line class="cls-9" x1="53.5" y1="352.5" x2="65.5" y2="345.5"/><line class="cls-9" x1="186.5" y1="496.5" x2="192.5" y2="482.5"/><line class="cls-9" x1="293.5" y1="548.5" x2="295.5" y2="531.5"/><line class="cls-9" x1="453.5" y1="548.5" x2="449.5" y2="531.5"/><line class="cls-9" x1="561.5" y1="492.5" x2="553.5" y2="478.5"/><line class="cls-9" x1="696.5" y1="362.5" x2="683.5" y2="355.5"/><line class="cls-9" x1="695.5" y1="188.5" x2="682.5" y2="191.5"/><line class="cls-9" x1="567.5" y1="67.5" x2="559.5" y2="77.5"/><line class="cls-9" x1="458.5" y1="28.5" x2="454.5" y2="39.5"/><line class="cls-9" x1="286.5" y1="26.5" x2="288.5" y2="38.5"/></svg>